<svg xmlns="http://www.w3.org/2000/svg" viewBox="4299 21388 24 24">
  <defs>
    <style>
      .cls-1 {
        fill: #fff;
        fill-rule: evenodd;
      }
    </style>
  </defs>
  <path id="Shape" class="cls-1" d="M1077.226,92h-20.453A1.747,1.747,0,0,0,1055,93.719v20.562a1.747,1.747,0,0,0,1.773,1.719h20.453a1.748,1.748,0,0,0,1.774-1.719V93.719A1.747,1.747,0,0,0,1077.226,92Zm-14.951,20.091h-3.625V101.254h3.625v10.837Zm-1.812-12.318h-.024a2.073,2.073,0,1,1,.024,0Zm14.884,12.318h-3.625v-5.8c0-1.456-.524-2.45-1.836-2.45a1.984,1.984,0,0,0-1.86,1.318,2.454,2.454,0,0,0-.119.879v6.052h-3.625s.048-9.821,0-10.837h3.625v1.534a3.6,3.6,0,0,1,3.267-1.79c2.385,0,4.173,1.549,4.173,4.878v6.215Z" transform="translate(3244 21296)"/>
</svg>
