<svg xmlns="http://www.w3.org/2000/svg" viewBox="4259 21390 24 19.504">
  <defs>
    <style>
      .cls-1 {
        fill: #fff;
        fill-rule: evenodd;
      }
    </style>
  </defs>
  <path id="Shape" class="cls-1" d="M1079,129.309a9.812,9.812,0,0,1-2.828.775,4.934,4.934,0,0,0,2.165-2.724,9.854,9.854,0,0,1-3.127,1.2,4.928,4.928,0,0,0-8.39,4.491,13.977,13.977,0,0,1-10.149-5.144,4.929,4.929,0,0,0,1.524,6.574,4.9,4.9,0,0,1-2.23-.616c0,.02,0,.041,0,.062a4.927,4.927,0,0,0,3.95,4.828,4.942,4.942,0,0,1-1.3.173,4.889,4.889,0,0,1-.926-.088,4.929,4.929,0,0,0,4.6,3.42,9.878,9.878,0,0,1-6.115,2.108,10.082,10.082,0,0,1-1.174-.069,14,14,0,0,0,21.557-11.8c0-.213,0-.426-.014-.637a10,10,0,0,0,2.457-2.549Z" transform="translate(3204 21263)"/>
</svg>
