<?xml version="1.0" encoding="utf-8"?>
<!-- Generator: Adobe Illustrator 19.2.0, SVG Export Plug-In . SVG Version: 6.00 Build 0)  -->
<svg version="1.1" id="Layer_1" xmlns="http://www.w3.org/2000/svg" xmlns:xlink="http://www.w3.org/1999/xlink" x="0px" y="0px"
	 width="595.8px" height="113.8px" viewBox="0 0 595.8 113.8" style="enable-background:new 0 0 595.8 113.8;" xml:space="preserve"
	>
<style type="text/css">
	.st0{fill:#2F3941;}
	.st1{fill:#F05448;}
</style>
<g>
	<rect x="100.8" y="0" class="st0" width="16.6" height="90.1"/>
	<polygon class="st0" points="166.5,90.1 150,90.1 124.9,28.9 143.1,28.9 158.3,70 172.9,28.9 190.3,28.9 	"/>
	<path class="st0" d="M233,52.5c-0.2-6.1-4.2-12.1-13.7-12.1c-8.6,0-13.3,6.5-13.7,12.1H233z M248.4,72.6
		C245.3,83.2,235.6,92,220.5,92c-16.8,0-31.6-12.1-31.6-32.7c0-19.5,14.4-32.2,30.1-32.2c18.9,0,30.3,12.1,30.3,31.7
		c0,2.4-0.2,4.9-0.2,5.1h-43.8c0.4,8.1,7.2,13.9,15.4,13.9c7.7,0,12-3.9,13.9-9.3L248.4,72.6z"/>
	<path class="st0" d="M294.8,45.3c-1.9-0.4-3.5-0.5-5-0.5c-8.5,0-15.8,4.1-15.8,17.3v28h-16.6V28.9h16.1V38
		c3.7-8.1,12.2-9.6,17.4-9.6c1.4,0,2.6,0.1,3.9,0.2V45.3z"/>
	<path class="st0" d="M334.6,42.3c-8.5,0-15.3,6.3-15.3,17.2c0,10.8,6.8,17.3,15.3,17.3s15.2-6.4,15.2-17.3
		C349.8,48.7,343.1,42.3,334.6,42.3 M303,113.8V28.9h16v7.5c2.7-4.7,9.6-8.8,18.8-8.8c17.9,0,28.3,13.7,28.3,31.9
		c0,18.5-11.6,32.2-28.9,32.2c-8.5,0-14.7-3.4-17.7-7.5v29.6C319.5,113.8,303,113.8,303,113.8z"/>
	<path class="st0" d="M421,59.5c0-11.6-7.5-17.4-15.6-17.4s-15.6,5.9-15.6,17.4s7.5,17.4,15.6,17.4S421,71.1,421,59.5 M437.6,59.5
		c0,18.8-13.8,32.5-32.1,32.5s-32.1-13.7-32.1-32.5c0-18.9,13.8-32.5,32.1-32.5S437.6,40.6,437.6,59.5"/>
	<path class="st0" d="M462,90.1h-16.6V28.9h16.1v7.6c3.7-6.3,11.1-9.2,17.7-9.2c15.2,0,22.2,10.8,22.2,24.3v38.6h-16.6V54.4
		c0-6.8-3.4-12.2-11.3-12.2c-7.2,0-11.5,5.6-11.5,12.7L462,90.1L462,90.1z"/>
	<path class="st0" d="M540.4,76.8c8.5,0,15.1-6.5,15.1-17.6c0-11-6.6-17.1-15.1-17.1s-15.2,6.2-15.2,17.2S531.7,76.8,540.4,76.8
		 M571.5,79.1c0,4.1,0.2,8.6,0.5,11.1h-15.8c-0.2-1.2-0.6-4.2-0.6-7.1c-2.7,4.9-9,8.6-17.2,8.6c-17.4,0-29.9-13.7-29.9-32.2
		c0-17.9,12.1-32,29.4-32c10.6,0,15.6,4.4,17.3,7.6V0h16.3V79.1z"/>
	<polygon class="st1" points="92.1,8.9 92.1,0 75.5,0 75.5,17.3 	"/>
	<polygon class="st0" points="75.5,26.1 75.5,90.1 92.1,90.1 92.1,17.6 	"/>
	<path class="st0" d="M42.2,38.7l-12.3-2.4c-6.5-1.2-9.6-5.1-9.6-10c0-5.9,5.5-11.2,13.8-11.2c11,0,15.1,7.3,16,12.2l0.5,2.2
		l14.7-7.4c0,0,0-0.6-0.6-2.4l0,0c-0.1-0.3-0.2-0.5-0.3-0.8c-0.2-0.7-0.5-1.5-0.8-2.1l0,0C59.9,8.5,51.2,0,34,0
		C17.3,0,3.2,12,3.2,27.6C3.2,41,12.3,50,26.4,52.9l12.3,2.5c6.8,1.4,10.7,5.4,10.7,10.5c0,6.2-5.1,10.8-14.3,10.8
		c-11.7,0-17.9-7.1-19.1-15.2l0,0c-0.4-2.1-0.5-4.7-0.5-4.7L0,64.8l0.8,4.5C4.1,80.6,14.6,92,34.9,92c20.5,0,31.9-13.7,31.9-27.3
		C66.8,52.3,58.2,41.8,42.2,38.7"/>
	<polygon class="st0" points="579.2,81.2 579.2,90.1 595.8,90.1 595.8,72.8 	"/>
</g>
</svg>
